<svg width="44" height="36" viewBox="0 0 44 36" fill="none" xmlns="http://www.w3.org/2000/svg">
<path d="M3.97159 35.375C2.9375 35.375 2.05114 35.0114 1.3125 34.2841C0.573864 33.5568 0.210227 32.6705 0.221591 31.625C0.210227 30.6023 0.573864 29.7273 1.3125 29C2.05114 28.2727 2.9375 27.9091 3.97159 27.9091C4.97159 27.9091 5.84091 28.2727 6.57955 29C7.32955 29.7273 7.71023 30.6023 7.72159 31.625C7.71023 32.3182 7.52841 32.9489 7.17614 33.517C6.83523 34.0852 6.38068 34.5398 5.8125 34.8807C5.25568 35.2102 4.64205 35.375 3.97159 35.375Z" fill="#00EAFF"/>
<path d="M26.1946 35H14.3651V0.0909081H26.4332C29.8991 0.0909081 32.8764 0.789772 35.3651 2.1875C37.8651 3.57386 39.7855 5.56818 41.1264 8.17045C42.4673 10.7727 43.1378 13.8864 43.1378 17.5114C43.1378 21.1477 42.4616 24.2727 41.1094 26.8864C39.7685 29.5 37.831 31.5057 35.2969 32.9034C32.7741 34.3011 29.7401 35 26.1946 35ZM20.6889 29.5284H25.8878C28.3196 29.5284 30.348 29.0852 31.973 28.1989C33.598 27.3011 34.8196 25.9659 35.6378 24.1932C36.456 22.4091 36.8651 20.1818 36.8651 17.5114C36.8651 14.8409 36.456 12.625 35.6378 10.8636C34.8196 9.09091 33.6094 7.76705 32.0071 6.89205C30.4162 6.00568 28.4389 5.5625 26.0753 5.5625H20.6889V29.5284Z" fill="white"/>
</svg>
